<svg version="1" xmlns="http://www.w3.org/2000/svg" width="646.667" height="646.667" viewBox="0 0 485.000000 485.000000"><path d="M230.5 28.6c-44.2 3.2-83.6 17.5-116.4 42.2-44.8 33.7-73.5 80.3-83.2 135.2-2.7 14.8-3.6 42.7-2 58.1 4.1 38.6 19.7 78 43 108.4 7 9.1 26.5 28.9 36.1 36.5 40.7 32.3 89.8 48.6 141.5 46.7 53.6-1.9 102.1-22.5 140.9-59.7 53-50.9 75.7-124.3 61-197C433.7 111.4 361 43.1 272 30.6c-11.1-1.6-33-2.6-41.5-2zM195 106.2c1.2 4.6 3.1 10 4.2 12.1 2.9 5.7 9.3 12.2 14.3 14.6 5.8 2.7 15.5 2.8 23.3.2 5.6-1.9 5.8-1.9 11.2-.1 7.6 2.7 18.1 2.6 23.6 0 8.8-4.3 15.5-14.3 19-28.3.9-3.7 1.8-6.6 1.9-6.5.2.2 1.3 4.3 2.5 9.3 3.1 12.5 3.7 27.2 1.6 35.5-1.9 7.4-6.7 16-10.9 19.6l-2.9 2.4H202.1l-3.7-3.6c-4.3-4.4-8.9-13.6-10.5-21.3-1.5-7.4-.7-20.3 2.2-32.4 1.2-5.3 2.3-9.7 2.5-9.7.1 0 1.2 3.7 2.4 8.2zm-40.3 55.2c7.8 3.5 15.3 11.2 19.3 19.8 1.7 3.5 3 6.8 3 7.4 0 1.4-9.7 5.8-16.3 7.5-7 1.7-19.1.7-25.2-2.1-7.3-3.5-16.4-13-20.8-21.9-2.1-4.1-3.4-7.8-3-8.2.7-.6 11.1-4.1 15.8-5.3 1.1-.3 6.3-.4 11.5-.2 8 .2 10.5.7 15.7 3zM366 161c3.6 1.3 6.9 2.6 7.4 3 .4.5-.7 3.9-2.5 7.7-4.7 9.7-15.3 20.2-23.4 23.2-8.4 3.2-21.1 2.6-30.7-1.3-3.7-1.5-7.1-3.3-7.7-4-1.4-1.7 3-11.9 7.7-17.5s11.9-10.6 18.1-12.6c6.7-2.2 22.6-1.4 31.1 1.5zm-81.5 16.1c5 1.4 11 7.3 12.3 12.3.9 3.1 0 15.7-4.8 64.9-6.4 65.3-6.2 64.6-12.3 69.1-2.7 2-4.1 2.1-35.5 2.4-32.4.3-32.7.2-37.2-2-7.7-3.9-7.4-2.3-13.9-69.7-6.3-66-6.3-65.2-.7-71.6 5.4-6.2 6.7-6.4 49.6-6.5 25.1 0 39.9.4 42.5 1.1zM149 347.4v4.4l4.4-.5c5.3-.6 6 .3 6.9 9.4l.7 6.3h-7.9l-.3-5.3c-.2-3.8-.7-5.2-1.8-5.2-1 0-1.6 1.2-1.8 3.2-.2 1.9.1 3.3.7 3.3s1.1.9 1.1 2c0 1.7-.7 2-4.7 2h-4.8v-24h7.5v4.4zm76.8-1.3c.3 2.8-1.6 4.3-4.2 3.3-3.8-1.4-2.2-6.8 1.8-6.2 1.4.2 2.2 1.2 2.4 2.9zm14.2 6.8c0 5.6.4 10.3 1 10.6.6.3 1 1.3 1 2.1 0 1-1.3 1.4-4.7 1.4h-4.8v-24h7.5v9.9zm14.2-2.7c0 4 .3 5.8.5 4 .4-3.1.6-3.2 4.9-3.2 4 0 4.4.2 4.4 2.5 0 1.8-.5 2.5-2 2.5-2.8 0-2.5 1.4 1 5.3 4.2 4.8 3.9 5.7-2 5.7-4.9 0-5-.1-5-2.9 0-1.7-.5-3.3-1.1-3.6-.7-.5-.8.5-.4 2.9l.7 3.6h-4.6c-3.9 0-4.6-.3-4.6-1.9 0-1.1.5-2.3 1-2.6.6-.3 1-3.7 1-7.5s-.4-7.2-1-7.5c-.5-.3-1-1.5-1-2.6 0-1.6.7-1.9 4-1.9h4l.2 7.2zM134 349c0 1.1.7 2 1.5 2s1.5.9 1.5 2-.7 2-1.5 2c-1.1 0-1.5 1.2-1.5 4.6 0 3.8.3 4.5 1.6 4 1.2-.4 1.5 0 1.2 1.7-.2 1.6-1.1 2.3-3.1 2.5-4.2.5-5.7-1.3-5.7-6.9 0-2.6-.4-5.1-1-5.4-.5-.3-1-1.5-1-2.6 0-1 .5-1.9 1-1.9.6 0 1-.6 1-1.4 0-1.5 1.5-2.4 4.3-2.5 1.1-.1 1.7.6 1.7 1.9zm148 3.9c0 2.1-.6 3.2-2.1 3.6-1.9.6-2.1 1.2-1.5 5.6l.7 4.9h-8.6v-16.2l3.6.5c2 .3 4.3.1 5-.4 2.3-1.4 2.9-1 2.9 2zm-102.1.7c1.2 1.5 2.1 3.7 2.1 5 0 2.2-.4 2.4-5 2.4-3.1 0-5 .4-5 1.1 0 .8 1.4 1 4.1.6 3.1-.4 4.2-.2 4.6 1 .9 2.3-2.4 4.3-6.9 4.3-7.7 0-11.5-8.3-6.7-14.4 1.6-2.1 2.9-2.6 6.4-2.6 3.5 0 4.8.5 6.4 2.6zm31.7.4c.6 1.4 1.5 4.9 1.8 7.7l.7 5.3H206v-5.5c0-4.2-.3-5.5-1.5-5.5-1 0-1.5 1.1-1.5 3.5 0 1.9.5 3.5 1 3.5.6 0 1 .9 1 1.9 0 1.8-.8 2-9.3 2h-9.2v-15.7l12 .1c11.7.2 12 .2 13.1 2.7zm14.4 2.9c0 3.3.5 6.3 1 6.6.6.3 1 1.3 1 2.1 0 1-1.3 1.4-5 1.4s-5-.4-5-1.4c0-.8.5-1.8 1-2.1 1.4-.8 1.3-6.8-.1-8.2-2.1-2.1-.2-4.3 3.6-4.3h3.5v5.9zm73.5-5.3c1.9.8 4.5 5.5 4.5 8.4 0 3-5.3 8-8.5 8-3.3 0-8.1-2.4-8.9-4.5-3.1-8.1 4.6-15.1 12.9-11.9zm22.9 1.5c3 2.4 3.6 8.1 1.1 11.6-3.4 4.8-12.6 3.6-15.3-2-1.6-3.3-.4-8.1 2.5-10.3 2.7-2 8.7-1.7 11.7.7zm22.3-.9c.7.6 1.4.5 1.8-.2 1-1.5 6.2-1.2 7.9.6 1 .9 1.6 3.3 1.6 6 0 2.4.5 4.4 1 4.4.6 0 1 .9 1 2 0 1.7-.7 2-4.5 2H349v-5.5c0-3.4-.4-5.5-1.1-5.5-.8 0-1 1.7-.5 5.5l.6 5.5h-8v-5.5c0-4.2-.3-5.5-1.5-5.5-1 0-1.5 1.1-1.5 3.5 0 1.9.5 3.5 1 3.5.6 0 1 .9 1 2 0 1.7-.7 2-5 2-3.7 0-5-.4-5-1.4 0-.8.5-1.8 1-2.1 1.4-.8 1.3-6.8-.1-8.2-.7-.7-.9-1.8-.6-2.7.4-1.1 2.3-1.4 7.4-1.4 3.7 0 7.3.4 8 1z"/><path d="M194.6 127.8c-.9 1.5 1.4 15.3 3.2 19.5 1 2.3 3.1 5.7 4.6 7.4l2.8 3.3h74.6l3-3.4c1.6-1.9 3.9-5.8 5-8.8 1.9-5.1 4-18.8 2.9-18.8-.3 0-3 2.4-6.1 5.4-7 6.9-13.8 9.6-24 9.6-4 0-9.7-.7-12.6-1.6-5-1.5-5.8-1.5-11 .1-4 1.2-8.1 1.6-14.1 1.3-10.3-.4-16.3-3-23.1-10-2.6-2.6-4.9-4.4-5.2-4zM126.3 166.3c-2.3.7-4.5 1.5-4.8 1.9-1.1 1.1 6.3 11.5 10.5 14.8 6.1 4.8 11.8 7 18.6 7 5.3 0 8.4-.7 16.2-3.5 1-.3.8-1.4-.8-4.5-3-5.9-7.3-10.3-13.2-13.5-4.5-2.5-6.6-2.9-13.8-3.2-4.7-.1-10.4.3-12.7 1zM335.3 167.1c-8.1 3.1-18.5 14.4-16.9 18.4.7 1.9 9.9 4.5 15.9 4.5 6.9 0 11.7-1.6 17.3-5.9 5-3.7 12.7-13.7 12.1-15.5-.5-1.6-9.7-3.6-16.7-3.5-4 0-8.5.8-11.7 2zM203.3 183.7c-2.7.5-7.2 4.9-7.9 7.9-.3 1.3 1.9 28.1 5 59.7s5.6 58.4 5.6 59.6c0 1.3 1.3 3.6 2.9 5.2l2.9 2.9h30.1c32.1 0 34.2-.3 36-4.9.6-1.4 3.3-25.8 6-54.1 6.9-70.5 6.7-67 4.8-70.7-3.2-6.1-4.5-6.3-45.9-6.2-20.5.1-38.3.4-39.5.6zm30.4 30.8c9.8 1.9 14.6 1.9 25.3 0 11.7-2.1 17.7-2 18.9.3 1.2 2.2-6.6 92.1-8.1 93.9-.8 1-7.6 1.3-27.9 1.3H215l-.6-2.5c-.3-1.4-2.3-21.8-4.4-45.3-4.2-48.1-4.3-46.3 3.2-48 6.4-1.5 11.7-1.4 20.5.3zM172.7 355.6c-1.3 1.3-.7 2.4 1.4 2.4 1.1 0 1.9-.5 1.7-1.2-.5-1.4-2.2-2.1-3.1-1.2zM194 359.4c0 1.8.6 3.8 1.3 4.4.9.8 1.1.1.8-3.4-.4-5.1-2.1-6-2.1-1zM293.7 355.7c-.4.3-.7 2.1-.7 4 0 2.3.5 3.3 1.5 3.3 2 0 2.9-2.3 2.1-5.5-.6-2.5-1.7-3.1-2.9-1.8zM314.6 356.6c-1 2.6-.7 5.1.8 6.3 2.2 1.8 4.2-2.3 2.7-5.5-1.2-2.8-2.6-3.1-3.5-.8z"/></svg>